<?xml version="1.0" encoding="utf-8"?>
<!-- Generator: Adobe Illustrator 15.1.0, SVG Export Plug-In . SVG Version: 6.00 Build 0)  -->
<!DOCTYPE svg PUBLIC "-//W3C//DTD SVG 1.1//EN" "http://www.w3.org/Graphics/SVG/1.1/DTD/svg11.dtd">
<svg version="1.1" id="Layer_1" xmlns="http://www.w3.org/2000/svg" xmlns:xlink="http://www.w3.org/1999/xlink" x="0px" y="0px"
	 width="841.89px" height="340.16px" viewBox="0 0 841.89 340.16" enable-background="new 0 0 841.89 340.16" xml:space="preserve">
<g>
	<defs>
		<path id="SVGID_13_" d="M250.695,139.783c9.057-0.307,8.137,3.838,9.979,5.066c1.842,1.228-1.382,35.158-1.382,35.158
			s16.274-0.768,22.109,0c5.833,0.77,6.293,10.286,4.605,13.664c-1.689,3.38-6.449,3.38-6.449,3.38
			c-9.057,1.841-18.116-0.771-19.497-0.922c-1.383-0.156-2.458-3.228-2.458-3.228l-1.688,13.973l-3.072-1.533v2.61l2.304,1.228
			c0,0,8.596,0.459,20.112,0.92c11.514,0.458,6.948,12.519,6.948,12.519c1.443,0.831,4.994,3.161,13.778,8.977
			c11.362,7.521,7.369,11.065,7.369,11.065c-6.908,13.676-45.903,13.651-50.97,13.036c-2.139-0.256-4.113,0.192-5.553,0.712
			c-0.981,0.769-3.472,1.831-8.88,3.282c-14.891,3.991-65.863,18.423-66.632,18.729c-0.767,0.307,10.442,0.92,10.442,0.92
			l0.307-1.382c0,0,1.995-0.152,2.456,0.31c0.459,0.459,1.688,1.072,1.688,1.072l4.3,0.614c0,0,5.987,0.921,5.987,7.983
			c0,7.063-5.987,9.828-8.904,10.288c-2.918,0.457-17.196-0.767-17.196-0.767s-3.685-0.311-4.452-5.683
			c-0.293-2.046-0.718-2.667-1.134-2.651l0.672-0.878l-7.829-0.461c0,0-1.074-1.998-2.763-1.538
			c-1.689,0.462-40.378,13.516-40.378,13.516l7.217,1.379l1.228-1.539c0,0,1.687-0.609,1.995,0.313
			c0.308,0.918,2.457,1.227,2.457,1.227s4.452-0.614,7.37,2.301c2.918,2.92,3.07,14.28-4.758,15.355
			c-7.831,1.072-22.264,2.149-23.338-3.072c-1.076-5.219-2.303-3.226-2.303-3.226l-1.382-1.072l1.843-1.844
			c0,0-5.066-0.766-6.14-0.305c-1.076,0.458-5.374-1.538-5.374-1.538l-57.727,17.812l-2.609-2.302c0,0-1.999,2.609-13.667,2.302
			c0,0-4.759,2.918-4.144,4.604c0.614,1.69-2.149,0-2.149,0v-4.759l-5.221-4.3l0.614-0.921l8.137,3.53l149.229-54.651l-14.891-4.149
			c-20.112,2.766-56.039-9.977-56.039-9.977s1.34-0.174,3.125-0.53c-1.107,0.053-2.18,0.198-3.125,0.53
			c-16.275,5.68-55.118,20.88-57.268,21.032c-1.964,0.14-10.846,1.436-12.95,2.124c4.352-2.104,42.643-21.938,56.069-28.896
			c-0.788-0.002-1.364-0.031-1.665-0.097c-2.764-0.613-3.223-3.992-3.684-5.22c-0.461-1.229,4.298-3.839,8.905-3.685
			c0.246,0.008,0.577-0.008,0.97-0.047c-1.643,0.11-47.031-57.067-47.031-57.067s6.603-0.459,12.13-0.766
			c5.527-0.307,6.753,1.994,6.753,1.994l47.289,36.234l7.829-12.437h7.677c3.224,0,3.378,4.145,3.378,4.145
			s-2.146,17.812-1.271,17.583c0.003,0.031,0.001,0.016,0,0c7.195-1.374,56.404-6.093,92.507-9.336
			c-0.729-1.885,17.618-41.47,17.618-41.47l-2.455-1.014l2.147-4.146l1.381-1.228l-1.381-1.383l2.917-6.753l1.842-0.461
			c0,0,8.598-20.881,9.826-22.265c1.229-1.379-5.528-5.678-5.528-5.678l1.537-0.615c0.09-0.037,0.198-0.053,0.324-0.053
			C244.71,135.43,250.695,139.783,250.695,139.783 M85.244,240.143c0.005,0,0.011,0,0.015,0
			C85.254,240.143,85.249,240.143,85.244,240.143L85.244,240.143 M121.993,229.831L121.993,229.831
			c-0.048-0.301-0.051-0.402-0.04-0.402C121.972,229.429,122.042,229.759,121.993,229.831 M121.99,229.81L121.99,229.81"/>
	</defs>
	<clipPath id="SVGID_1_">
		<use xlink:href="#SVGID_13_"  overflow="visible"/>
	</clipPath>
	<rect x="-23.488" y="252.779" clip-path="url(#SVGID_1_)" fill="#66A5D8" width="358.822" height="91.491"/>
	
		<rect x="-23.488" y="252.779" clip-path="url(#SVGID_1_)" fill="none" stroke="#010101" stroke-width="0.5803" stroke-linecap="round" stroke-linejoin="round" stroke-miterlimit="10" width="358.822" height="91.491"/>
	<rect x="-33.786" y="240.809" clip-path="url(#SVGID_1_)" fill="#F7EE7B" width="367.336" height="14.938"/>
	<path clip-path="url(#SVGID_1_)" fill="none" stroke="#231F20" stroke-width="1.1606" stroke-miterlimit="10" d="M303.354,237.274
		c-2.72-0.678-17.311-22.683-53.428-19.805c-36.118,2.873-121.855,10.597-132.678,12.9c0,0-58.235-45.603-62.609-47.674
		c-4.376-2.075-15.583,0.229-16.352,0.229"/>
</g>
<g>
	<defs>
		<rect id="SVGID_15_" x="6.89" y="133.949" width="301.377" height="198.188"/>
	</defs>
	<clipPath id="SVGID_2_">
		<use xlink:href="#SVGID_15_"  overflow="visible"/>
	</clipPath>
	
		<path clip-path="url(#SVGID_2_)" fill="none" stroke="#010101" stroke-width="1.1606" stroke-linecap="round" stroke-linejoin="round" stroke-miterlimit="10" d="
		M121.993,229.831C122,229.893,121.984,229.759,121.993,229.831C122.068,229.726,121.861,228.979,121.993,229.831L121.993,229.831z
		 M8.425,320.179l8.137,3.534l149.229-54.655l-14.891-4.149c-20.112,2.766-56.039-9.977-56.039-9.977s1.34-0.174,3.125-0.53
		c-1.107,0.053-2.18,0.198-3.125,0.53c-16.275,5.68-55.117,20.88-57.268,21.032c-1.964,0.14-10.846,1.436-12.95,2.124
		c4.352-2.104,42.643-21.938,56.069-28.896c-0.788,0-1.364-0.031-1.665-0.097c-2.762-0.613-3.223-3.992-3.684-5.22
		c-0.461-1.229,4.298-3.839,8.905-3.685c0.248,0.008,0.578-0.008,0.974-0.049c0.003,0,0.011,0,0.015,0c-0.004,0-0.012,0-0.015,0
		c-1.574,0.201-47.035-57.065-47.035-57.065s6.603-0.459,12.13-0.766c5.527-0.31,6.753,1.994,6.753,1.994l47.289,36.234
		l7.829-12.437h7.677c3.224,0,3.378,4.145,3.378,4.145s-2.146,17.812-1.271,17.583c7.195-1.374,56.404-6.093,92.507-9.336
		c-0.731-1.881,17.618-41.47,17.618-41.47l-2.455-1.014l2.147-4.146l1.381-1.228l-1.381-1.383l2.918-6.753l1.841-0.461
		c0,0,8.598-20.881,9.826-22.265c1.229-1.379-5.528-5.678-5.528-5.678l1.537-0.615c1.536-0.614,8.291,4.299,8.291,4.299
		c9.057-0.307,8.137,3.838,9.979,5.066c1.842,1.228-1.382,35.158-1.382,35.158s16.274-0.765,22.109,0
		c5.833,0.77,6.293,10.286,4.605,13.664c-1.689,3.38-6.449,3.38-6.449,3.38c-9.057,1.841-18.116-0.771-19.497-0.922
		c-1.381-0.156-2.458-3.228-2.458-3.228l-1.688,13.973l-3.072-1.533v2.61l2.304,1.228c0,0,8.596,0.459,20.112,0.92
		c11.514,0.458,6.948,12.519,6.948,12.519c1.443,0.831,4.994,3.157,13.778,8.974c11.362,7.524,7.369,11.068,7.369,11.068
		c-6.908,13.676-45.903,13.651-50.97,13.036c-2.139-0.256-4.113,0.192-5.552,0.712c-0.983,0.769-3.473,1.831-8.882,3.282
		c-14.891,3.991-65.863,18.423-66.63,18.729c-0.769,0.307,10.44,0.92,10.44,0.92l0.307-1.382c0,0,1.995-0.152,2.456,0.31
		c0.461,0.459,1.688,1.072,1.688,1.072l4.299,0.614c0,0,5.988,0.921,5.988,7.983c0,7.063-5.988,9.828-8.904,10.288
		c-2.918,0.457-17.196-0.767-17.196-0.767s-3.685-0.311-4.452-5.683c-0.293-2.046-0.718-2.664-1.134-2.651l0.672-0.878l-7.829-0.461
		c0,0-1.074-1.998-2.763-1.538c-1.689,0.462-40.378,13.516-40.378,13.516l7.217,1.379l1.228-1.535c0,0,1.687-0.613,1.995,0.309
		c0.308,0.918,2.457,1.227,2.457,1.227s4.452-0.614,7.37,2.304c2.918,2.917,3.07,14.277-4.758,15.353
		c-7.831,1.072-22.264,2.149-23.338-3.072c-1.076-5.219-2.302-3.226-2.302-3.226l-1.383-1.072l1.843-1.844
		c0,0-5.066-0.766-6.14-0.305c-1.076,0.458-5.374-1.538-5.374-1.538l-57.727,17.812l-2.609-2.302c0,0-1.998,2.609-13.667,2.302
		c0,0-4.759,2.918-4.144,4.604c0.614,1.69-2.149,0-2.149,0v-4.759l-5.221-4.3L8.425,320.179L8.425,320.179z"/>
</g>
<g>
	<defs>
		<path id="SVGID_17_" d="M773.297,139.783c9.061-0.307,8.139,3.838,9.98,5.066c1.842,1.228-1.383,35.158-1.383,35.158
			s16.275-0.768,22.109,0c5.836,0.77,6.297,10.286,4.605,13.664c-1.688,3.38-6.447,3.38-6.447,3.38
			c-9.059,1.841-18.115-0.771-19.498-0.922c-1.383-0.156-2.455-3.228-2.455-3.228l-1.689,13.973l-3.07-1.533v2.61l2.301,1.228
			c0,0,8.598,0.459,20.115,0.92c11.512,0.458,6.945,12.519,6.945,12.519c1.443,0.831,4.994,3.161,13.777,8.977
			c11.363,7.521,7.369,11.065,7.369,11.065c-6.906,13.676-45.902,13.651-50.971,13.036c-2.137-0.256-4.109,0.192-5.553,0.712
			c-0.979,0.769-3.471,1.831-8.879,3.282c-14.893,3.991-65.863,18.423-66.633,18.729c-0.766,0.307,10.441,0.92,10.441,0.92
			l0.309-1.382c0,0,1.996-0.152,2.455,0.31c0.461,0.459,1.689,1.072,1.689,1.072l4.297,0.614c0,0,5.99,0.921,5.99,7.983
			c0,7.063-5.99,9.828-8.906,10.288c-2.918,0.457-17.195-0.767-17.195-0.767s-3.686-0.311-4.453-5.683
			c-0.291-2.046-0.719-2.667-1.131-2.651l0.674-0.878l-7.832-0.461c0,0-1.076-1.998-2.764-1.538
			c-1.689,0.462-40.379,13.516-40.379,13.516l7.215,1.379l1.23-1.539c0,0,1.688-0.609,1.994,0.313
			c0.311,0.918,2.459,1.227,2.459,1.227s4.449-0.614,7.369,2.301c2.918,2.92,3.068,14.28-4.76,15.355
			c-7.832,1.072-22.264,2.149-23.336-3.072c-1.076-5.219-2.303-3.226-2.303-3.226l-1.383-1.072l1.842-1.844
			c0,0-5.066-0.766-6.141-0.305c-1.074,0.458-5.375-1.538-5.375-1.538l-57.727,17.812l-2.609-2.302c0,0-1.996,2.609-13.662,2.302
			c0,0-4.764,2.918-4.148,4.604c0.615,1.69-2.148,0-2.148,0v-4.759l-5.219-4.3l0.613-0.921l8.137,3.53l149.229-54.651l-14.891-4.149
			c-20.113,2.766-56.037-9.977-56.037-9.977s1.34-0.174,3.123-0.53c-1.107,0.053-2.18,0.198-3.123,0.53
			c-16.277,5.68-55.117,20.878-57.27,21.032c-1.961,0.14-10.85,1.436-12.949,2.124c4.354-2.104,42.643-21.938,56.066-28.896
			c-0.785-0.002-1.361-0.031-1.662-0.097c-2.762-0.613-3.225-3.992-3.684-5.22c-0.463-1.229,4.299-3.839,8.904-3.685
			c0.248,0.008,0.576-0.008,0.971-0.047c-1.645,0.11-47.029-57.067-47.029-57.067s6.602-0.459,12.127-0.766
			c5.527-0.307,6.754,1.994,6.754,1.994l47.287,36.234l7.832-12.437h7.676c3.225,0,3.377,4.145,3.377,4.145
			s-2.146,17.812-1.271,17.583c0.004,0.031,0.004,0.016,0,0c7.195-1.374,56.404-6.093,92.51-9.336
			c-0.732-1.885,17.613-41.47,17.613-41.47l-2.453-1.014l2.148-4.146l1.383-1.228l-1.383-1.383l2.918-6.753l1.844-0.461
			c0,0,8.598-20.881,9.822-22.265c1.23-1.379-5.525-5.678-5.525-5.678l1.535-0.615c0.09-0.037,0.197-0.053,0.322-0.053
			C767.314,135.43,773.297,139.783,773.297,139.783 M607.846,240.143c0.004,0,0.01,0,0.018,0
			C607.855,240.143,607.85,240.143,607.846,240.143L607.846,240.143 M644.596,229.831L644.596,229.831
			c-0.047-0.301-0.053-0.402-0.041-0.402C644.578,229.429,644.645,229.759,644.596,229.831 M644.594,229.81L644.594,229.81"/>
	</defs>
	<clipPath id="SVGID_3_">
		<use xlink:href="#SVGID_17_"  overflow="visible"/>
	</clipPath>
	<rect x="499.117" y="250.168" clip-path="url(#SVGID_3_)" fill="#66A5D8" width="358.82" height="19.041"/>
	<rect x="489.738" y="247.565" clip-path="url(#SVGID_3_)" fill="#F15E27" width="367.338" height="4.755"/>
	<path clip-path="url(#SVGID_3_)" fill="none" stroke="#231F20" stroke-width="1.1606" stroke-miterlimit="10" d="M825.957,237.274
		c-2.719-0.678-17.309-22.683-53.426-19.805c-36.119,2.873-121.857,10.597-132.68,12.9c0,0-58.232-45.603-62.611-47.674
		c-4.375-2.075-15.582,0.229-16.348,0.229"/>
	<rect x="528.113" y="261.531" clip-path="url(#SVGID_3_)" fill="#9ACE7E" width="293.854" height="81.063"/>
</g>
<g>
	<defs>
		<rect id="SVGID_19_" x="529.49" y="133.949" width="301.381" height="198.188"/>
	</defs>
	<clipPath id="SVGID_4_">
		<use xlink:href="#SVGID_19_"  overflow="visible"/>
	</clipPath>
	
		<path clip-path="url(#SVGID_4_)" fill="none" stroke="#010101" stroke-width="1.1606" stroke-linecap="round" stroke-linejoin="round" stroke-miterlimit="10" d="
		M644.596,229.831C644.605,229.893,644.586,229.759,644.596,229.831C644.672,229.726,644.463,228.979,644.596,229.831
		L644.596,229.831z M531.029,320.179l8.137,3.534l149.229-54.655l-14.891-4.149c-20.113,2.766-56.037-9.977-56.037-9.977
		s1.34-0.174,3.123-0.53c-1.107,0.053-2.18,0.198-3.123,0.53c-16.277,5.68-55.117,20.88-57.27,21.032
		c-1.961,0.14-10.85,1.436-12.949,2.124c4.35-2.104,42.643-21.938,56.066-28.896c-0.785,0-1.361-0.031-1.662-0.097
		c-2.762-0.613-3.225-3.992-3.684-5.22c-0.463-1.229,4.299-3.839,8.904-3.685c0.248,0.008,0.576-0.008,0.973-0.049
		c0.004,0,0.01,0,0.018,0c-0.008,0-0.014,0-0.018,0c-1.574,0.201-47.031-57.065-47.031-57.065s6.602-0.459,12.129-0.766
		c5.525-0.31,6.752,1.994,6.752,1.994l47.287,36.234l7.832-12.437h7.676c3.225,0,3.381,4.145,3.381,4.145s-2.15,17.812-1.275,17.583
		c7.195-1.374,56.404-6.093,92.51-9.336c-0.732-1.881,17.613-41.47,17.613-41.47l-2.453-1.014l2.148-4.146l1.383-1.228l-1.383-1.383
		l2.918-6.753l1.844-0.461c0,0,8.598-20.881,9.824-22.265c1.229-1.379-5.527-5.678-5.527-5.678l1.535-0.615
		c1.535-0.614,8.289,4.299,8.289,4.299c9.061-0.307,8.139,3.838,9.98,5.066c1.842,1.228-1.383,35.158-1.383,35.158
		s16.275-0.765,22.109,0c5.836,0.77,6.297,10.286,4.605,13.664c-1.688,3.38-6.447,3.38-6.447,3.38
		c-9.059,1.841-18.115-0.771-19.498-0.922c-1.383-0.156-2.455-3.228-2.455-3.228l-1.689,13.973l-3.07-1.533v2.61l2.301,1.228
		c0,0,8.598,0.459,20.115,0.92c11.512,0.458,6.945,12.519,6.945,12.519c1.443,0.831,4.994,3.157,13.777,8.974
		c11.363,7.524,7.369,11.068,7.369,11.068c-6.906,13.676-45.902,13.651-50.971,13.036c-2.137-0.256-4.109,0.192-5.553,0.712
		c-0.979,0.769-3.471,1.831-8.879,3.282c-14.893,3.991-65.863,18.423-66.633,18.729c-0.766,0.307,10.441,0.92,10.441,0.92
		l0.309-1.382c0,0,1.996-0.152,2.455,0.31c0.461,0.459,1.689,1.072,1.689,1.072l4.297,0.614c0,0,5.99,0.921,5.99,7.983
		c0,7.063-5.99,9.828-8.906,10.288c-2.916,0.457-17.195-0.767-17.195-0.767s-3.684-0.311-4.453-5.683
		c-0.291-2.046-0.715-2.664-1.131-2.651l0.674-0.878l-7.832-0.461c0,0-1.076-1.998-2.764-1.538
		c-1.689,0.462-40.379,13.516-40.379,13.516l7.215,1.379l1.23-1.535c0,0,1.688-0.613,1.994,0.309
		c0.311,0.918,2.459,1.227,2.459,1.227s4.449-0.614,7.369,2.304c2.918,2.917,3.068,14.277-4.76,15.353
		c-7.832,1.072-22.264,2.149-23.336-3.072c-1.076-5.219-2.303-3.226-2.303-3.226l-1.383-1.072l1.842-1.844
		c0,0-5.066-0.766-6.141-0.305c-1.074,0.458-5.375-1.538-5.375-1.538l-57.727,17.812l-2.609-2.302c0,0-1.996,2.609-13.662,2.302
		c0,0-4.764,2.918-4.148,4.604c0.615,1.69-2.148,0-2.148,0v-4.759l-5.219-4.3L531.029,320.179L531.029,320.179z"/>
</g>
<g>
	<defs>
		<path id="SVGID_21_" d="M511.996,139.783c9.057-0.307,8.135,3.838,9.977,5.066c1.846,1.228-1.379,35.158-1.379,35.158
			s16.273-0.768,22.109,0c5.83,0.77,6.291,10.286,4.604,13.664c-1.688,3.38-6.447,3.38-6.447,3.38
			c-9.057,1.841-18.117-0.771-19.496-0.922c-1.385-0.156-2.459-3.228-2.459-3.228l-1.689,13.973l-3.07-1.533v2.61l2.305,1.228
			c0,0,8.596,0.459,20.111,0.92c11.516,0.458,6.947,12.519,6.947,12.519c1.445,0.831,4.996,3.161,13.779,8.977
			c11.361,7.521,7.369,11.065,7.369,11.065c-6.91,13.676-45.904,13.651-50.971,13.036c-2.139-0.256-4.109,0.192-5.553,0.712
			c-0.98,0.769-3.473,1.831-8.879,3.282c-14.895,3.991-65.863,18.423-66.633,18.729c-0.766,0.307,10.439,0.92,10.439,0.92
			l0.309-1.382c0,0,1.994-0.152,2.457,0.31c0.457,0.459,1.689,1.072,1.689,1.072l4.297,0.614c0,0,5.988,0.921,5.988,7.983
			c0,7.063-5.988,9.828-8.906,10.288c-2.918,0.457-17.195-0.767-17.195-0.767s-3.682-0.311-4.451-5.683
			c-0.291-2.046-0.719-2.667-1.135-2.651l0.674-0.878l-7.83-0.461c0,0-1.073-1.998-2.762-1.538
			c-1.688,0.462-40.378,13.516-40.378,13.516l7.214,1.379l1.228-1.539c0,0,1.691-0.609,1.998,0.313
			c0.307,0.918,2.456,1.227,2.456,1.227s4.453-0.614,7.369,2.301c2.917,2.92,3.072,14.28-4.759,15.355
			c-7.83,1.072-22.262,2.149-23.337-3.072c-1.074-5.219-2.302-3.226-2.302-3.226l-1.381-1.072l1.84-1.844
			c0,0-5.065-0.766-6.139-0.305c-1.075,0.458-5.374-1.538-5.374-1.538l-57.726,17.812l-2.611-2.302c0,0-1.998,2.609-13.665,2.302
			c0,0-4.76,2.918-4.146,4.604c0.614,1.69-2.149,0-2.149,0v-4.759l-5.22-4.3l0.615-0.921l8.136,3.53l149.23-54.651l-14.892-4.149
			c-20.111,2.766-56.037-9.977-56.037-9.977s1.339-0.174,3.123-0.53c-1.106,0.053-2.181,0.198-3.123,0.53
			c-16.275,5.68-55.12,20.878-57.269,21.032c-1.963,0.14-10.848,1.436-12.949,2.124c4.351-2.104,42.64-21.938,56.066-28.896
			c-0.786-0.002-1.361-0.031-1.662-0.097c-2.764-0.613-3.224-3.992-3.685-5.22c-0.459-1.229,4.299-3.839,8.904-3.685
			c0.249,0.008,0.577-0.008,0.971-0.047c-1.641,0.11-47.03-57.067-47.03-57.067s6.602-0.459,12.129-0.766
			c5.528-0.307,6.755,1.994,6.755,1.994l47.286,36.234l7.83-12.437h7.677c3.224,0,3.378,4.145,3.378,4.145
			s-2.148,17.812-1.274,17.583c0.005,0.031,0.003,0.016,0,0c7.197-1.374,56.406-6.093,92.505-9.336
			c-0.729-1.885,17.621-41.47,17.621-41.47l-2.459-1.014l2.15-4.146l1.385-1.228l-1.385-1.383l2.918-6.753l1.842-0.461
			c0,0,8.598-20.881,9.824-22.265c1.229-1.379-5.523-5.678-5.523-5.678l1.533-0.615c0.09-0.037,0.199-0.053,0.322-0.053
			C506.012,135.43,511.996,139.783,511.996,139.783 M346.546,240.143c0.003,0,0.011,0,0.015,0
			C346.557,240.143,346.549,240.143,346.546,240.143L346.546,240.143 M383.293,229.831L383.293,229.831
			c-0.046-0.301-0.049-0.402-0.038-0.402C383.274,229.429,383.345,229.759,383.293,229.831 M383.292,229.81L383.292,229.81"/>
	</defs>
	<clipPath id="SVGID_5_">
		<use xlink:href="#SVGID_21_"  overflow="visible"/>
	</clipPath>
	<path clip-path="url(#SVGID_5_)" fill="none" stroke="#231F20" stroke-width="1.1606" stroke-miterlimit="10" d="M564.656,237.274
		c-2.719-0.678-17.309-22.683-53.43-19.805c-36.115,2.873-121.853,10.597-132.678,12.9c0,0-58.233-45.603-62.608-47.674
		c-4.376-2.075-15.582,0.229-16.352,0.229"/>
	<rect x="261.284" y="306.363" clip-path="url(#SVGID_5_)" fill="#9ACE7E" width="293.854" height="81.061"/>
	<rect x="276.899" y="281.492" clip-path="url(#SVGID_5_)" fill="#66A5D8" width="272.974" height="24.871"/>
	<rect x="304.758" y="272.365" clip-path="url(#SVGID_5_)" fill="#F7EE7B" width="244.418" height="9.127"/>
</g>
<g>
	<defs>
		<rect id="SVGID_23_" x="268.192" y="133.949" width="301.378" height="198.188"/>
	</defs>
	<clipPath id="SVGID_6_">
		<use xlink:href="#SVGID_23_"  overflow="visible"/>
	</clipPath>
	
		<path clip-path="url(#SVGID_6_)" fill="none" stroke="#010101" stroke-width="1.1606" stroke-linecap="round" stroke-linejoin="round" stroke-miterlimit="10" d="
		M383.293,229.831C383.303,229.893,383.284,229.759,383.293,229.831C383.372,229.726,383.163,228.979,383.293,229.831
		L383.293,229.831z M269.728,320.179l8.136,3.534l149.23-54.655l-14.892-4.149c-20.111,2.766-56.037-9.977-56.037-9.977
		s1.339-0.174,3.124-0.53c-1.106,0.053-2.182,0.198-3.124,0.53c-16.275,5.68-55.12,20.88-57.269,21.032
		c-1.963,0.14-10.848,1.436-12.949,2.124c4.351-2.104,42.642-21.938,56.066-28.896c-0.786,0-1.361-0.031-1.662-0.097
		c-2.764-0.613-3.224-3.992-3.685-5.22c-0.459-1.229,4.299-3.839,8.904-3.685c0.25,0.008,0.58-0.008,0.976-0.049
		c0.003,0,0.011,0,0.013,0c-0.002,0-0.01,0-0.013,0c-1.573,0.201-47.035-57.065-47.035-57.065s6.602-0.459,12.129-0.766
		c5.528-0.31,6.755,1.994,6.755,1.994l47.286,36.234l7.83-12.437h7.677c3.224,0,3.378,4.145,3.378,4.145s-2.148,17.812-1.274,17.583
		c7.197-1.374,56.406-6.093,92.505-9.336c-0.729-1.881,17.621-41.47,17.621-41.47l-2.455-1.014l2.146-4.146l1.385-1.228
		l-1.385-1.383l2.918-6.753l1.842-0.461c0,0,8.598-20.881,9.824-22.265c1.229-1.379-5.523-5.678-5.523-5.678l1.533-0.615
		c1.535-0.614,8.291,4.299,8.291,4.299c9.057-0.307,8.135,3.838,9.98,5.066c1.842,1.228-1.383,35.158-1.383,35.158
		s16.273-0.765,22.109,0c5.834,0.77,6.291,10.286,4.604,13.664c-1.688,3.38-6.447,3.38-6.447,3.38
		c-9.057,1.841-18.117-0.771-19.496-0.922c-1.385-0.156-2.459-3.228-2.459-3.228l-1.689,13.973l-3.07-1.533v2.61l2.305,1.228
		c0,0,8.596,0.459,20.111,0.92c11.516,0.458,6.947,12.519,6.947,12.519c1.445,0.831,4.996,3.157,13.779,8.974
		c11.361,7.524,7.369,11.068,7.369,11.068c-6.91,13.676-45.904,13.651-50.971,13.036c-2.139-0.256-4.109,0.192-5.553,0.712
		c-0.98,0.769-3.473,1.831-8.879,3.282c-14.895,3.991-65.863,18.423-66.633,18.729c-0.766,0.307,10.439,0.92,10.439,0.92
		l0.309-1.382c0,0,1.994-0.152,2.457,0.31c0.457,0.459,1.689,1.072,1.689,1.072l4.297,0.614c0,0,5.988,0.921,5.988,7.983
		c0,7.063-5.988,9.828-8.906,10.288c-2.918,0.457-17.195-0.767-17.195-0.767s-3.682-0.311-4.451-5.683
		c-0.291-2.046-0.719-2.664-1.135-2.651l0.674-0.878l-7.828-0.461c0,0-1.075-1.998-2.764-1.538
		c-1.688,0.462-40.378,13.516-40.378,13.516l7.216,1.379l1.227-1.535c0,0,1.691-0.613,1.998,0.309
		c0.307,0.918,2.456,1.227,2.456,1.227s4.453-0.614,7.371,2.304c2.916,2.917,3.07,14.277-4.761,15.353
		c-7.83,1.072-22.262,2.149-23.337-3.072c-1.074-5.219-2.302-3.226-2.302-3.226l-1.381-1.072l1.84-1.844
		c0,0-5.065-0.766-6.139-0.305c-1.075,0.458-5.374-1.538-5.374-1.538l-57.726,17.812l-2.611-2.302c0,0-1.998,2.609-13.665,2.302
		c0,0-4.76,2.918-4.146,4.604c0.614,1.69-2.148,0-2.148,0v-4.759l-5.221-4.3L269.728,320.179L269.728,320.179z"/>
</g>
<path fill="none" stroke="#010101" d="M836.248,262.489"/>
<g>
	<path fill="#010101" d="M106.562,103.662c-7.944,21.883-27.878,26.379-41.967,26.379c-15.288,0-32.825-7.494-32.825-38.22
		c0-32.675,10.643-75.091,50.511-75.091c13.939,0,26.081,5.546,26.081,20.084c0,7.943-2.848,13.789-10.492,13.789
		c-2.399,0-5.696-0.6-8.543-3.897c3.747-1.049,6.595-8.543,6.595-12.291c0-2.398-0.75-10.642-10.342-10.642
		c-18.436,0-30.276,38.072-30.276,64.75c0,19.635,3.597,28.027,19.784,28.027c11.541,0,22.483-4.796,28.029-14.389L106.562,103.662z
		"/>
	<path fill="#010101" d="M167.116,64.543l1.499,2.997c-1.499,5.247-4.047,12.29-10.042,15.888
		c-1.648,31.025-19.335,46.764-33.424,46.764c-16.038,0-23.532-6.896-23.532-24.731c0-36.571,18.885-52.759,39.419-52.759
		c7.195,0,14.089,2.848,14.089,6.746c0,4.346-3.597,6.145-6.745,7.193c-1.199-3.147-3.298-5.096-6.745-5.096
		c-14.688,0-20.083,30.576-20.083,42.566c0,8.993,4.497,11.392,10.491,11.392c8.844,0,14.09-16.188,15.589-29.977
		c-2.998-0.601-4.197-2.998-4.197-6.146c0-5.246,5.246-11.391,10.041-11.391c2.849,0,5.097,0.898,5.097,4.046
		c0,0.45,0,0.899-0.15,1.349C162.319,70.987,163.668,68.289,167.116,64.543z"/>
</g>
<g>
	<path fill="#010101" d="M267.238,105.16c-0.45,1.799-0.75,3.747-0.75,5.547c0,3.446,1.348,6.145,6.145,6.145
		c5.995,0,12.291-8.844,15.738-15.287h7.044c-6.895,8.092-20.384,27.578-32.075,27.578c-11.69,0-18.585-5.098-18.585-16.338
		c0-2.398,0.3-4.797,0.899-7.645l5.696-26.979c0.3-1.35,0.449-2.697,0.449-3.896c0-5.396-2.847-8.844-6.894-8.844
		c-3.297,0-5.846,0.9-8.693,2.698c0.45,1.798,0.75,3.447,0.75,5.245c0,1.05-0.149,2.1-0.3,3.148l-11.091,52.609h-21.733
		l10.792-50.961c0.3-1.35,0.45-2.697,0.45-3.896c0-5.396-2.848-8.844-6.895-8.844c-3.597,0-6.145,1.049-9.142,3.147l-12.89,60.554
		h-21.583L180.456,54.2h21.583l-1.649,7.944c5.995-4.346,12.891-7.944,19.335-7.944c5.545,0,11.541,4.048,14.839,9.893
		c6.595-5.246,14.538-9.893,21.883-9.893c8.243,0,17.236,8.693,17.236,18.886c0,1.199-0.15,2.248-0.299,3.447L267.238,105.16z"/>
	<path fill="#010101" d="M313.553,54.2l-0.6,2.849c3.148-1.648,6.745-2.697,10.492-2.697c15.588,0,22.932,5.545,22.932,20.982
		c0,3.147-0.299,6.595-0.899,10.492c-4.646,32.224-17.536,43.166-32.824,43.166c-4.946,0-9.593-1.648-14.089-4.497l-7.793,36.722
		l-22.632,5.396L291.97,54.2H313.553z M326.292,87.625c1.35-6.596,1.949-11.542,1.949-15.139c0-8.993-3.597-10.792-8.394-10.792
		c-2.848,0-5.695,1.199-8.542,3.147l-10.792,50.361c3.597,2.697,7.344,2.697,9.742,2.697
		C317.75,117.9,321.346,111.456,326.292,87.625z"/>
</g>
<g>
	<path fill="#010101" d="M402.029,10.023l54.551,119.305h-17.645l-17.482-38.204h-48.724l-17.483,38.204h-17.808l54.715-119.305
		H402.029z M379.689,75.907h34.803L397.01,37.705L379.689,75.907z"/>
	<path fill="#010101" d="M481.023,10.833V32.2h-15.865V10.833H481.023z M481.023,48.551v80.777h-15.865V48.551H481.023z"/>
</g>
<g>
	<path fill="#010101" d="M546.58,51.626c1.729,1.188,3.266,2.347,4.615,3.479c1.348,1.134,2.725,2.619,4.129,4.453l-8.744,13.759
		c-3.129-2.913-5.396-4.962-6.799-6.151c-1.404-1.187-2.643-2.104-3.723-2.752c-1.836-1.077-3.346-1.619-4.533-1.619
		c-1.514,0-3.131,0.461-4.855,1.377c-1.727,0.918-3.67,2.564-5.826,4.938c-3.994,4.316-6.91,8.148-8.742,11.493v48.726h-15.863
		V48.551h15.863v11.979c0.105-0.215,0.455-0.835,1.051-1.861c0.592-1.024,1.377-2.238,2.348-3.643
		c0.975-1.401,1.783-2.373,2.428-2.914c2.805-2.373,5.559-3.804,8.256-4.289c2.699-0.486,5.234-0.729,7.609-0.729
		C538.324,47.094,542.586,48.605,546.58,51.626z"/>
</g>
<g>
	<path fill="#010101" d="M564.064,129.047V14.438h12.627v103.277h54.551v11.332H564.064z"/>
	<path fill="#010101" d="M640.469,31.919V14.438h11.814v17.32L640.469,31.919z M640.469,129.047V52.154h11.814v76.893H640.469z"/>
</g>
<g>
	<path fill="#010101" d="M720.115,129.047V85.501c0-3.776-0.406-7.122-1.215-10.036c-0.811-2.914-1.973-5.286-3.484-7.123
		c-3.02-3.991-7.443-5.99-13.271-5.99c-5.396,0-9.77,1.405-13.111,4.211c-1.727,1.403-3.293,2.914-4.695,4.531
		c-1.402,1.619-2.699,3.348-3.887,5.182v52.771h-11.816V52.154h11.656v9.713c2.482-3.453,5.123-5.99,7.932-7.609
		c4.209-2.371,8.846-3.561,13.922-3.561c8.957,0,16.188,2.915,21.691,8.742c2.805,2.912,4.857,6.367,6.152,10.36
		c1.293,3.993,1.941,8.417,1.941,13.272v45.975H720.115z"/>
	<path fill="#010101" d="M760.258,89.872v2.913c0.326,7.018,2.967,13.006,7.934,17.969c2.695,2.591,5.664,4.59,8.9,5.99
		c3.24,1.404,6.91,2.104,11.01,2.104c5.504,0,10.469-1.239,14.893-3.723c2.373-1.295,4.531-2.643,6.477-4.047
		c1.941-1.4,4.262-3.344,6.959-5.828v14.408c-1.836,1.403-3.699,2.698-5.584,3.885c-1.891,1.188-3.965,2.266-6.23,3.237
		c-5.291,2.481-11.01,3.724-17.16,3.724c-11.441,0-20.883-3.83-28.33-11.494c-7.34-7.876-11.008-17.697-11.008-29.462
		c0-10.898,3.291-20.017,9.873-27.356c6.691-7.662,15.217-11.494,25.578-11.494c10.037,0,18.293,3.561,24.768,10.685
		c3.131,3.455,5.506,7.474,7.123,12.06c1.619,4.588,2.428,10.064,2.428,16.431H760.258z M803.641,80.484
		c-0.539-2.592-1.293-5.02-2.266-7.286c-0.971-2.266-2.213-4.153-3.725-5.665c-1.617-1.619-3.559-2.887-5.826-3.805
		c-2.266-0.916-4.965-1.377-8.094-1.377c-7.123,0-12.789,2.646-16.996,7.934c-0.971,1.188-1.863,2.699-2.672,4.533
		c-0.811,1.836-1.486,3.67-2.023,5.504h41.602V80.484z"/>
</g>
</svg>
