<?xml version="1.0" encoding="utf-8"?>
<!-- Generator: Adobe Illustrator 15.1.0, SVG Export Plug-In . SVG Version: 6.00 Build 0)  -->
<!DOCTYPE svg PUBLIC "-//W3C//DTD SVG 1.1//EN" "http://www.w3.org/Graphics/SVG/1.1/DTD/svg11.dtd">
<svg version="1.1" id="Layer_1" xmlns="http://www.w3.org/2000/svg" xmlns:xlink="http://www.w3.org/1999/xlink" x="0px" y="0px"
	 width="841.89px" height="330.2px" viewBox="0 0 841.89 330.2" enable-background="new 0 0 841.89 330.2" xml:space="preserve">
<g>
	<defs>
		<path id="SVGID_1_" d="M116.729,219.851c0.048-0.066-0.02-0.391-0.04-0.391C116.679,219.46,116.682,219.556,116.729,219.851
			 M233.424,128.415l-1.489,0.596c0,0,6.548,4.166,5.357,5.504c-1.191,1.339-9.523,21.576-9.523,21.576l-1.785,0.447l-2.826,6.545
			l1.338,1.34l-1.338,1.189l-2.084,4.017l2.381,0.985c0,0-17.782,38.362-17.075,40.189c-34.987,3.143-82.678,7.713-89.651,9.047
			c0.001,0.014,0.003,0.029,0,0c-0.848,0.221,1.231-17.04,1.231-17.04s-0.149-4.019-3.273-4.019h-7.439l-7.588,12.053
			l-45.828-35.116c0,0-1.19-2.231-6.547-1.933c-5.357,0.298-11.754,0.744-11.754,0.744s43.987,55.41,45.579,55.307
			c-0.381,0.034-0.7,0.051-0.941,0.044c-4.461-0.149-9.074,2.38-8.628,3.569c0.446,1.191,0.893,4.464,3.57,5.06
			c0.291,0.064,0.848,0.093,1.611,0.096c-13.012,6.742-50.122,25.962-54.337,28.002c2.038-0.67,10.646-1.922,12.55-2.058
			c2.084-0.149,39.728-14.88,55.5-20.386c0.915-0.317,1.955-0.464,3.027-0.513c-1.727,0.348-3.027,0.513-3.027,0.513
			s34.818,12.351,54.31,9.672l14.432,4.017l-144.625,52.97l-7.886-3.421l-0.595,0.892l5.06,4.167v4.612c0,0,2.677,1.637,2.083,0
			c-0.596-1.636,4.017-4.465,4.017-4.465c11.308,0.299,13.244-2.231,13.244-2.231l2.53,2.231l55.944-17.26
			c0,0,4.167,1.935,5.208,1.489c1.04-0.446,5.952,0.297,5.952,0.297l-1.786,1.786l1.339,1.042c0,0,1.19-1.935,2.232,3.124
			c1.04,5.058,15.029,4.016,22.617,2.976c7.586-1.041,7.438-12.052,4.611-14.88c-2.828-2.824-7.142-2.23-7.142-2.23
			s-2.083-0.297-2.381-1.19c-0.296-0.893-1.933-0.298-1.933-0.298l-1.191,1.488l-6.993-1.339c0,0,37.495-12.648,39.132-13.095
			c1.636-0.445,2.678,1.488,2.678,1.488l7.588,0.447l-0.652,0.854c0.401-0.018,0.814,0.584,1.098,2.566
			c0.744,5.209,4.316,5.506,4.316,5.506s13.835,1.192,16.663,0.746c2.828-0.448,8.629-3.126,8.629-9.97
			c0-6.845-5.801-7.738-5.801-7.738l-4.167-0.595c0,0-1.19-0.595-1.637-1.041c-0.445-0.447-2.38-0.299-2.38-0.299l-0.297,1.34
			c0,0-10.862-0.595-10.118-0.893c0.743-0.297,50.142-14.285,64.574-18.153c5.243-1.403,7.657-2.435,8.608-3.18
			c1.395-0.502,3.307-0.939,5.379-0.688c4.911,0.595,42.702,0.617,49.399-12.638c0,0,3.868-3.432-7.144-10.724
			c-8.512-5.637-11.954-7.892-13.352-8.696c0,0,4.427-11.688-6.734-12.135c-11.159-0.445-19.492-0.891-19.492-0.891l-2.231-1.192
			v-2.529l2.976,1.489l1.635-13.542c0,0,1.042,2.978,2.382,3.126c1.34,0.148,10.117,2.678,18.896,0.893c0,0,4.613,0,6.25-3.273
			c1.636-3.275,1.19-12.497-4.465-13.242c-5.653-0.743-21.425,0-21.425,0s3.124-32.884,1.339-34.073
			c-1.785-1.191-0.892-5.209-9.671-4.909c0,0-5.8-4.219-7.721-4.219C233.617,128.363,233.511,128.38,233.424,128.415"/>
	</defs>
	<clipPath id="SVGID_2_">
		<use xlink:href="#SVGID_1_"  overflow="visible"/>
	</clipPath>
	<rect x="-24.262" y="242.09" clip-path="url(#SVGID_2_)" fill="#65A5D9" width="347.749" height="88.668"/>
	
		<rect x="-24.263" y="242.09" clip-path="url(#SVGID_2_)" fill="none" stroke="#000000" stroke-width="0.616" stroke-linecap="round" stroke-linejoin="round" stroke-miterlimit="10" width="347.749" height="88.668"/>
	<rect x="-34.243" y="230.488" clip-path="url(#SVGID_2_)" fill="#F8EF79" width="356" height="14.478"/>
	<path clip-path="url(#SVGID_2_)" fill="none" stroke="#231F20" stroke-width="1.232" stroke-miterlimit="10" d="M292.493,227.063
		c-2.636-0.659-16.775-21.98-51.78-19.194c-35.002,2.786-118.094,10.271-128.583,12.502c0,0-56.437-44.194-60.677-46.203
		c-4.242-2.01-15.102,0.223-15.848,0.223"/>
	<rect x="12.469" y="120.083" clip-path="url(#SVGID_2_)" fill="#FFFFFF" width="309.486" height="112.485"/>
</g>
<g>
	<defs>
		<rect id="SVGID_3_" x="5.178" y="126.928" width="292.079" height="192.072"/>
	</defs>
	<clipPath id="SVGID_4_">
		<use xlink:href="#SVGID_3_"  overflow="visible"/>
	</clipPath>
	
		<path clip-path="url(#SVGID_4_)" fill="none" stroke="#000000" stroke-width="1.232" stroke-linecap="round" stroke-linejoin="round" stroke-miterlimit="10" d="
		M6.665,307.411l7.887,3.421l144.624-52.97l-14.432-4.017c-19.49,2.679-54.309-9.672-54.309-9.672s1.299-0.163,3.028-0.513
		c-1.073,0.05-2.113,0.194-3.028,0.513c-15.773,5.506-53.417,20.236-55.5,20.386c-1.904,0.136-10.512,1.389-12.551,2.058
		c4.216-2.04,41.326-21.259,54.337-28.002c-0.762-0.003-1.32-0.029-1.61-0.094c-2.678-0.596-3.126-3.869-3.573-5.06
		c-0.446-1.191,4.167-3.721,8.63-3.571c0.241,0.009,0.561-0.01,0.944-0.046c0.004,0,0.01,0,0.014,0c-0.004,0-0.01,0-0.014,0
		C79.588,230.04,35.53,174.54,35.53,174.54s6.398-0.446,11.754-0.743c5.357-0.298,6.548,1.934,6.548,1.934l45.828,35.114
		l7.588-12.052h7.439c3.124,0,3.273,4.018,3.273,4.018s-2.081,17.261-1.233,17.039c6.973-1.333,54.664-5.902,89.653-9.045
		c-0.708-1.828,17.075-40.191,17.075-40.191l-2.381-0.983l2.082-4.018l1.34-1.189l-1.34-1.341l2.828-6.546l1.786-0.445
		c0,0,8.332-20.237,9.522-21.576s-5.356-5.504-5.356-5.504l1.487-0.596c1.489-0.596,8.034,4.167,8.034,4.167
		c8.78-0.3,7.888,3.719,9.673,4.91c1.785,1.188-1.34,34.073-1.34,34.073s15.772-0.746,21.426,0
		c5.653,0.742,6.101,9.967,4.463,13.241c-1.636,3.273-6.249,3.273-6.249,3.273c-8.778,1.786-17.558-0.743-18.897-0.892
		c-1.339-0.149-2.381-3.125-2.381-3.125l-1.637,13.54l-2.975-1.489v2.529l2.232,1.192c0,0,8.332,0.445,19.491,0.893
		c11.16,0.445,6.733,12.135,6.733,12.135c1.4,0.803,4.84,3.058,13.354,8.694c11.011,7.29,7.142,10.724,7.142,10.724
		c-6.695,13.256-44.487,13.232-49.397,12.638c-2.073-0.252-3.984,0.187-5.381,0.688c-0.951,0.745-3.365,1.775-8.606,3.182
		c-14.433,3.867-63.832,17.854-64.575,18.151c-0.744,0.297,10.117,0.893,10.117,0.893l0.298-1.339c0,0,1.934-0.15,2.379,0.298
		c0.447,0.445,1.638,1.041,1.638,1.041l4.166,0.597c0,0,5.803,0.893,5.803,7.735c0,6.845-5.803,9.523-8.629,9.969
		c-2.827,0.446-16.665-0.743-16.665-0.743s-3.571-0.298-4.314-5.505c-0.284-1.984-0.697-2.584-1.1-2.568l0.651-0.854l-7.587-0.446
		c0,0-1.042-1.935-2.679-1.489c-1.636,0.446-39.131,13.095-39.131,13.095l6.993,1.339l1.191-1.488c0,0,1.636-0.595,1.933,0.298
		c0.299,0.894,2.381,1.19,2.381,1.19s4.315-0.596,7.143,2.232c2.827,2.827,2.975,13.837-4.613,14.878
		c-7.588,1.042-21.575,2.083-22.617-2.976c-1.041-5.059-2.232-3.126-2.232-3.126l-1.339-1.04l1.785-1.786
		c0,0-4.91-0.744-5.951-0.297c-1.042,0.445-5.208-1.487-5.208-1.487l-55.945,17.259l-2.529-2.231c0,0-1.937,2.531-13.243,2.231
		c0,0-4.613,2.828-4.017,4.464c0.594,1.637-2.084,0-2.084,0v-4.613l-5.06-4.166L6.665,307.411z M116.728,219.85
		C116.736,219.909,116.719,219.782,116.728,219.85C116.802,219.747,116.6,219.023,116.728,219.85z"/>
</g>
<g>
	<defs>
		<path id="SVGID_5_" d="M659.803,219.851c0.049-0.066-0.02-0.391-0.037-0.391C659.754,219.46,659.757,219.556,659.803,219.851
			 M776.498,128.415l-1.486,0.596c0,0,6.546,4.166,5.354,5.504c-1.188,1.339-9.521,21.576-9.521,21.576l-1.786,0.447l-2.827,6.545
			l1.338,1.34l-1.338,1.189l-2.083,4.017l2.38,0.985c0,0-17.78,38.362-17.073,40.189c-34.987,3.143-82.68,7.713-89.653,9.047
			c0.003,0.014,0.005,0.029,0,0c-0.847,0.221,1.231-17.04,1.231-17.04s-0.146-4.019-3.271-4.019h-7.438l-7.591,12.053
			l-45.826-35.116c0,0-1.19-2.231-6.548-1.933c-5.356,0.298-11.755,0.744-11.755,0.744s43.988,55.41,45.58,55.307
			c-0.382,0.034-0.702,0.051-0.94,0.044c-4.464-0.149-9.076,2.38-8.631,3.569c0.447,1.191,0.894,4.464,3.572,5.06
			c0.29,0.064,0.85,0.093,1.611,0.096c-13.012,6.742-50.12,25.962-54.336,28.002c2.036-0.67,10.646-1.922,12.549-2.058
			c2.082-0.149,39.728-14.88,55.501-20.386c0.913-0.317,1.956-0.464,3.026-0.513c-1.728,0.348-3.026,0.513-3.026,0.513
			s34.816,12.351,54.31,9.672l14.431,4.017l-144.625,52.97l-7.886-3.421l-0.594,0.892l5.058,4.167v4.612c0,0,2.678,1.637,2.083,0
			c-0.594-1.636,4.017-4.465,4.017-4.465c11.308,0.299,13.244-2.231,13.244-2.231l2.529,2.231l55.946-17.26
			c0,0,4.166,1.935,5.206,1.489c1.043-0.446,5.952,0.297,5.952,0.297l-1.785,1.786l1.339,1.042c0,0,1.19-1.935,2.232,3.124
			c1.041,5.058,15.028,4.016,22.616,2.976s7.441-12.052,4.613-14.88c-2.83-2.824-7.143-2.23-7.143-2.23s-2.083-0.297-2.381-1.19
			c-0.299-0.893-1.935-0.298-1.935-0.298l-1.19,1.488l-6.993-1.339c0,0,37.496-12.648,39.133-13.095
			c1.638-0.445,2.678,1.488,2.678,1.488l7.588,0.447l-0.651,0.854c0.402-0.018,0.814,0.584,1.098,2.566
			c0.744,5.209,4.316,5.507,4.316,5.507s13.838,1.191,16.664,0.745c2.827-0.448,8.63-3.126,8.63-9.97
			c0-6.845-5.803-7.738-5.803-7.738l-4.168-0.595c0,0-1.188-0.595-1.635-1.041c-0.447-0.447-2.382-0.299-2.382-0.299l-0.296,1.34
			c0,0-10.862-0.595-10.119-0.893c0.744-0.297,50.143-14.285,64.576-18.153c5.24-1.403,7.655-2.435,8.604-3.18
			c1.397-0.502,3.308-0.939,5.381-0.688c4.911,0.595,42.702,0.617,49.398-12.638c0,0,3.867-3.432-7.141-10.724
			c-8.515-5.637-11.955-7.892-13.354-8.696c0,0,4.426-11.686-6.731-12.135c-11.16-0.445-19.493-0.891-19.493-0.891l-2.232-1.192
			v-2.529l2.976,1.489l1.637-13.542c0,0,1.042,2.978,2.382,3.126c1.339,0.148,10.117,2.678,18.896,0.893c0,0,4.612,0,6.249-3.273
			c1.638-3.272,1.19-12.497-4.464-13.242c-5.652-0.743-21.426,0-21.426,0s3.123-32.884,1.337-34.073
			c-1.784-1.191-0.891-5.209-9.67-4.909c0,0-5.801-4.219-7.723-4.219C776.691,128.363,776.586,128.38,776.498,128.415"/>
	</defs>
	<clipPath id="SVGID_6_">
		<use xlink:href="#SVGID_5_"  overflow="visible"/>
	</clipPath>
	<rect x="518.813" y="239.561" clip-path="url(#SVGID_6_)" fill="#65A5D9" width="347.748" height="18.45"/>
	<rect x="509.725" y="237.037" clip-path="url(#SVGID_6_)" fill="#F15C24" width="356.001" height="4.607"/>
	<path clip-path="url(#SVGID_6_)" fill="none" stroke="#231F20" stroke-width="1.232" stroke-miterlimit="10" d="M835.569,227.063
		c-2.638-0.659-16.776-21.98-51.78-19.194c-35.002,2.786-118.094,10.271-128.584,12.502c0,0-56.437-44.194-60.678-46.203
		c-4.24-2.01-15.101,0.223-15.848,0.223"/>
	<rect x="546.914" y="250.572" clip-path="url(#SVGID_6_)" fill="#9ACE7D" width="284.785" height="78.563"/>
	<rect x="562.687" y="120.083" clip-path="url(#SVGID_6_)" fill="#FFFFFF" width="298.772" height="116.954"/>
</g>
<g>
	<defs>
		<rect id="SVGID_7_" x="548.252" y="126.928" width="292.078" height="192.072"/>
	</defs>
	<clipPath id="SVGID_8_">
		<use xlink:href="#SVGID_7_"  overflow="visible"/>
	</clipPath>
	
		<path clip-path="url(#SVGID_8_)" fill="none" stroke="#000000" stroke-width="1.232" stroke-linecap="round" stroke-linejoin="round" stroke-miterlimit="10" d="
		M549.74,307.411l7.886,3.421l144.625-52.97l-14.431-4.017c-19.491,2.679-54.31-9.672-54.31-9.672s1.299-0.163,3.026-0.513
		c-1.07,0.05-2.113,0.194-3.026,0.513c-15.773,5.506-53.419,20.236-55.501,20.386c-1.902,0.136-10.513,1.389-12.549,2.058
		c4.215-2.04,41.324-21.259,54.336-28.002c-0.762-0.003-1.321-0.029-1.61-0.094c-2.68-0.596-3.124-3.869-3.573-5.06
		c-0.445-1.191,4.167-3.721,8.631-3.571c0.24,0.009,0.562-0.01,0.943-0.046c0.005,0,0.011,0,0.015,0c-0.004,0-0.01,0-0.015,0
		c-1.524,0.195-45.583-55.305-45.583-55.305s6.398-0.446,11.755-0.743c5.357-0.298,6.548,1.934,6.548,1.934l45.828,35.114
		l7.589-12.052h7.438c3.125,0,3.273,4.018,3.273,4.018s-2.08,17.261-1.233,17.039c6.974-1.333,54.664-5.902,89.653-9.045
		c-0.707-1.828,17.074-40.191,17.074-40.191l-2.381-0.983l2.083-4.018l1.338-1.189l-1.338-1.341l2.827-6.546l1.786-0.445
		c0,0,8.332-20.237,9.521-21.576c1.19-1.339-5.355-5.504-5.355-5.504l1.486-0.596c1.488-0.596,8.035,4.167,8.035,4.167
		c8.779-0.3,7.887,3.719,9.671,4.91c1.787,1.188-1.338,34.073-1.338,34.073s15.771-0.746,21.426,0
		c5.654,0.742,6.102,9.967,4.464,13.241c-1.637,3.273-6.25,3.273-6.25,3.273c-8.777,1.786-17.557-0.743-18.896-0.892
		c-1.34-0.149-2.382-3.125-2.382-3.125l-1.637,13.54l-2.975-1.489v2.529l2.231,1.192c0,0,8.333,0.445,19.491,0.893
		c11.16,0.445,6.733,12.135,6.733,12.135c1.399,0.803,4.84,3.058,13.354,8.694c11.012,7.29,7.142,10.724,7.142,10.724
		c-6.695,13.256-44.487,13.232-49.398,12.638c-2.072-0.252-3.983,0.187-5.381,0.688c-0.949,0.745-3.364,1.775-8.604,3.182
		c-14.434,3.867-63.832,17.854-64.576,18.151c-0.743,0.297,10.117,0.893,10.117,0.893l0.3-1.339c0,0,1.933-0.15,2.378,0.298
		c0.448,0.445,1.638,1.041,1.638,1.041l4.166,0.597c0,0,5.802,0.893,5.802,7.735c0,6.845-5.802,9.523-8.627,9.969
		c-2.827,0.446-16.665-0.743-16.665-0.743s-3.572-0.298-4.316-5.505c-0.283-1.984-0.695-2.584-1.098-2.568l0.653-0.854l-7.59-0.446
		c0,0-1.04-1.935-2.678-1.489c-1.637,0.446-39.132,13.095-39.132,13.095l6.992,1.339l1.191-1.488c0,0,1.637-0.595,1.934,0.298
		c0.298,0.894,2.382,1.19,2.382,1.19s4.313-0.596,7.142,2.232c2.828,2.827,2.975,13.837-4.613,14.878
		c-7.588,1.042-21.575,2.083-22.616-2.976c-1.042-5.059-2.232-3.126-2.232-3.126l-1.339-1.04l1.785-1.786c0,0-4.91-0.744-5.95-0.297
		c-1.042,0.445-5.209-1.487-5.209-1.487l-55.945,17.259l-2.529-2.231c0,0-1.937,2.531-13.242,2.231c0,0-4.612,2.828-4.019,4.464
		c0.595,1.637-2.083,0-2.083,0v-4.613l-5.06-4.166L549.74,307.411z M659.803,219.85C659.812,219.909,659.795,219.782,659.803,219.85
		C659.877,219.747,659.676,219.023,659.803,219.85z"/>
</g>
<g>
	<defs>
		<path id="SVGID_9_" d="M388.264,219.851c0.047-0.066-0.018-0.391-0.038-0.391C388.216,219.46,388.221,219.556,388.264,219.851
			 M504.961,128.415l-1.488,0.596c0,0,6.547,4.166,5.357,5.504c-1.19,1.339-9.521,21.576-9.521,21.576l-1.786,0.447l-2.828,6.545
			l1.339,1.34l-1.339,1.189l-2.081,4.017l2.378,0.985c0,0-17.779,38.362-17.073,40.189c-34.989,3.143-82.681,7.713-89.654,9.047
			c0.003,0.014,0.006,0.029,0,0c-0.846,0.221,1.236-17.04,1.236-17.04s-0.15-4.019-3.275-4.019h-7.44l-7.587,12.053l-45.83-35.116
			c0,0-1.188-2.231-6.545-1.933c-5.357,0.298-11.755,0.744-11.755,0.744s43.987,55.41,45.578,55.307
			c-0.381,0.034-0.699,0.051-0.939,0.044c-4.464-0.149-9.076,2.38-8.63,3.569c0.447,1.191,0.895,4.464,3.572,5.06
			c0.291,0.064,0.849,0.093,1.61,0.096c-13.011,6.742-50.12,25.962-54.337,28.002c2.038-0.67,10.647-1.922,12.551-2.058
			c2.084-0.149,39.729-14.88,55.501-20.386c0.914-0.317,1.954-0.464,3.026-0.513c-1.729,0.348-3.026,0.513-3.026,0.513
			s34.817,12.351,54.31,9.672l14.432,4.017l-144.626,52.97l-7.887-3.421l-0.594,0.892l5.059,4.167v4.612c0,0,2.678,1.637,2.083,0
			c-0.595-1.636,4.018-4.465,4.018-4.465c11.309,0.299,13.243-2.231,13.243-2.231l2.529,2.231l55.946-17.26
			c0,0,4.167,1.935,5.208,1.489c1.04-0.446,5.951,0.297,5.951,0.297l-1.786,1.786l1.339,1.042c0,0,1.19-1.935,2.233,3.124
			c1.042,5.058,15.026,4.016,22.616,2.976c7.589-1.04,7.439-12.052,4.611-14.88c-2.825-2.824-7.141-2.23-7.141-2.23
			s-2.083-0.297-2.38-1.19c-0.297-0.893-1.934-0.298-1.934-0.298l-1.19,1.488l-6.995-1.339c0,0,37.495-12.648,39.132-13.095
			c1.636-0.445,2.68,1.488,2.68,1.488l7.587,0.447l-0.653,0.854c0.404-0.018,0.816,0.584,1.1,2.566
			c0.744,5.209,4.315,5.507,4.315,5.507s13.838,1.191,16.664,0.745c2.828-0.448,8.63-3.126,8.63-9.97
			c0-6.845-5.802-7.738-5.802-7.738l-4.167-0.595c0,0-1.19-0.595-1.636-1.041c-0.447-0.447-2.382-0.299-2.382-0.299l-0.297,1.34
			c0,0-10.862-0.595-10.118-0.893c0.744-0.297,50.144-14.285,64.574-18.153c5.241-1.403,7.656-2.435,8.606-3.18
			c1.396-0.502,3.31-0.939,5.381-0.688c4.909,0.595,42.703,0.617,49.399-12.638c0,0,3.868-3.432-7.143-10.724
			c-8.514-5.637-11.953-7.892-13.354-8.696c0,0,4.426-11.686-6.733-12.135c-11.159-0.445-19.492-0.891-19.492-0.891l-2.232-1.192
			v-2.529l2.977,1.489l1.636-13.542c0,0,1.042,2.978,2.383,3.126c1.338,0.148,10.117,2.678,18.896,0.893c0,0,4.611,0,6.247-3.273
			c1.637-3.272,1.191-12.497-4.462-13.242c-5.656-0.743-21.428,0-21.428,0s3.128-32.884,1.342-34.073
			c-1.786-1.191-0.895-5.209-9.672-4.909c0,0-5.8-4.219-7.725-4.219C505.153,128.363,505.05,128.38,504.961,128.415"/>
	</defs>
	<clipPath id="SVGID_10_">
		<use xlink:href="#SVGID_9_"  overflow="visible"/>
	</clipPath>
	<path clip-path="url(#SVGID_10_)" fill="none" stroke="#231F20" stroke-width="1.232" stroke-miterlimit="10" d="M564.032,227.063
		c-2.637-0.659-16.777-21.98-51.781-19.194c-35.001,2.786-118.095,10.271-128.583,12.502c0,0-56.437-44.194-60.677-46.203
		c-4.243-2.01-15.101,0.223-15.848,0.223"/>
	<rect x="270.021" y="294.02" clip-path="url(#SVGID_10_)" fill="#9ACE7D" width="284.786" height="78.562"/>
	<rect x="285.154" y="269.915" clip-path="url(#SVGID_10_)" fill="#65A5D9" width="264.55" height="24.104"/>
	<rect x="280.138" y="261.071" clip-path="url(#SVGID_10_)" fill="#F8EF79" width="268.889" height="8.844"/>
	<rect x="260.199" y="116.214" clip-path="url(#SVGID_10_)" fill="#FFFFFF" width="333.591" height="144.923"/>
</g>
<g>
	<defs>
		<rect id="SVGID_11_" x="276.716" y="126.928" width="292.077" height="192.072"/>
	</defs>
	<clipPath id="SVGID_12_">
		<use xlink:href="#SVGID_11_"  overflow="visible"/>
	</clipPath>
	
		<path clip-path="url(#SVGID_12_)" fill="none" stroke="#000000" stroke-width="1.232" stroke-linecap="round" stroke-linejoin="round" stroke-miterlimit="10" d="
		M278.203,307.411l7.887,3.421l144.624-52.97l-14.43-4.017c-19.491,2.679-54.31-9.672-54.31-9.672s1.299-0.163,3.028-0.513
		c-1.073,0.05-2.114,0.194-3.028,0.513c-15.773,5.506-53.418,20.236-55.5,20.386c-1.905,0.136-10.513,1.389-12.55,2.058
		c4.215-2.04,41.324-21.259,54.336-28.002c-0.761-0.003-1.319-0.029-1.61-0.094c-2.678-0.596-3.125-3.869-3.572-5.06
		c-0.446-1.191,4.167-3.721,8.63-3.571c0.24,0.009,0.56-0.01,0.944-0.046c0.004,0,0.01,0,0.014,0c-0.004,0-0.01,0-0.014,0
		c-1.524,0.195-45.583-55.305-45.583-55.305s6.398-0.446,11.754-0.743c5.358-0.298,6.548,1.934,6.548,1.934l45.828,35.114
		l7.588-12.052h7.439c3.125,0,3.273,4.018,3.273,4.018s-2.082,17.261-1.233,17.039c6.973-1.333,54.663-5.902,89.652-9.045
		c-0.707-1.828,17.075-40.191,17.075-40.191l-2.382-0.983l2.083-4.018l1.339-1.189l-1.339-1.341l2.828-6.546l1.786-0.445
		c0,0,8.33-20.237,9.521-21.576c1.19-1.339-5.355-5.504-5.355-5.504l1.486-0.596c1.489-0.596,8.034,4.167,8.034,4.167
		c8.779-0.3,7.888,3.719,9.674,4.91c1.784,1.188-1.341,34.073-1.341,34.073s15.773-0.746,21.427,0
		c5.652,0.742,6.101,9.967,4.464,13.241c-1.637,3.273-6.25,3.273-6.25,3.273c-8.778,1.786-17.559-0.743-18.897-0.892
		c-1.339-0.149-2.381-3.125-2.381-3.125l-1.636,13.54l-2.975-1.489v2.529l2.23,1.192c0,0,8.333,0.445,19.491,0.893
		c11.16,0.445,6.734,12.135,6.734,12.135c1.398,0.803,4.84,3.058,13.353,8.694c11.012,7.29,7.144,10.724,7.144,10.724
		c-6.697,13.256-44.488,13.232-49.399,12.638c-2.071-0.252-3.982,0.187-5.381,0.688c-0.95,0.745-3.365,1.775-8.605,3.182
		c-14.432,3.867-63.831,17.854-64.575,18.151c-0.743,0.297,10.118,0.893,10.118,0.893l0.298-1.339c0,0,1.934-0.15,2.38,0.298
		c0.445,0.445,1.637,1.041,1.637,1.041l4.167,0.597c0,0,5.802,0.893,5.802,7.735c0,6.845-5.802,9.523-8.63,9.969
		c-2.827,0.446-16.663-0.743-16.663-0.743s-3.572-0.298-4.316-5.505c-0.283-1.984-0.696-2.584-1.099-2.568l0.653-0.854l-7.59-0.446
		c0,0-1.04-1.935-2.679-1.489c-1.636,0.446-39.129,13.095-39.129,13.095l6.992,1.339l1.191-1.488c0,0,1.636-0.595,1.934,0.298
		c0.298,0.894,2.38,1.19,2.38,1.19s4.315-0.596,7.143,2.232c2.827,2.827,2.975,13.837-4.612,14.878
		c-7.588,1.042-21.576,2.083-22.617-2.976c-1.041-5.059-2.232-3.126-2.232-3.126l-1.339-1.04l1.786-1.786
		c0,0-4.911-0.744-5.951-0.297c-1.043,0.445-5.21-1.487-5.21-1.487l-55.944,17.259l-2.529-2.231c0,0-1.936,2.531-13.243,2.231
		c0,0-4.613,2.828-4.017,4.464c0.593,1.637-2.084,0-2.084,0v-4.613l-5.06-4.166L278.203,307.411z M388.266,219.85
		C388.274,219.909,388.257,219.782,388.266,219.85C388.339,219.747,388.138,219.023,388.266,219.85z"/>
</g>
<path fill="none" stroke="#000000" stroke-width="1.062" d="M850.383,249.858"/>
<g>
	<path fill="#FFFFFF" d="M107.21,96.467c-7.252,19.979-25.453,24.084-38.315,24.084c-13.958,0-29.968-6.842-29.968-34.895
		c0-29.832,9.716-68.558,46.115-68.558c12.727,0,23.811,5.063,23.811,18.337c0,7.252-2.6,12.589-9.579,12.589
		c-2.189,0-5.2-0.547-7.8-3.558c3.421-0.958,6.021-7.8,6.021-11.221c0-2.189-0.684-9.716-9.442-9.716
		c-16.832,0-27.642,34.758-27.642,59.115c0,17.926,3.284,25.589,18.063,25.589c10.537,0,20.526-4.379,25.589-13.137L107.21,96.467z"
		/>
	<path fill="#FFFFFF" d="M155.242,70.056c0.821,0.821,2.053,1.232,3.968,1.232c6.432,0,9.306-4.653,14.369-6.706l0.547,2.874
		c-4.242,5.337-11.358,9.853-19.295,12.042c-2.6,27.505-17.516,41.053-31.199,41.053c-14.642,0-20.937-6.158-20.937-22.442
		c0-33.663,17.105-48.168,35.989-48.168C151.684,49.94,154.968,60.067,155.242,70.056z M144.705,80.867
		c-3.968,0-5.747-2.874-5.747-6.158c0-3.969,2.326-8.21,6.021-9.579c-0.41-4.516-1.916-7.116-5.747-7.116
		c-12.863,0-18.337,27.916-18.337,38.863c0,8.21,3.832,10.4,9.168,10.4C138.41,107.277,143.063,94.14,144.705,80.867z"/>
	<path fill="#FFFFFF" d="M253.769,97.835c-0.411,1.642-0.685,3.421-0.685,5.063c0,3.147,1.231,5.611,5.61,5.611
		c5.474,0,11.221-8.074,14.369-13.958h6.431c-6.294,7.39-18.61,25.179-29.284,25.179s-16.968-4.652-16.968-14.916
		c0-2.189,0.273-4.379,0.821-6.979l5.2-24.631c0.274-1.231,0.411-2.463,0.411-3.558c0-4.926-2.6-8.073-6.295-8.073
		c-3.01,0-5.337,0.821-7.937,2.463c0.41,1.642,0.684,3.147,0.684,4.79c0,0.958-0.137,1.916-0.274,2.874l-10.126,48.031h-19.842
		l9.853-46.526c0.273-1.231,0.41-2.463,0.41-3.558c0-4.926-2.6-8.073-6.294-8.073c-3.284,0-5.61,0.958-8.347,2.874l-11.769,55.284
		h-19.705l14.505-68.42h19.705l-1.505,7.252c5.474-3.968,11.769-7.252,17.652-7.252c5.063,0,10.537,3.695,13.547,9.032
		c6.021-4.79,13.273-9.032,19.979-9.032c7.526,0,15.736,7.937,15.736,17.242c0,1.095-0.137,2.053-0.273,3.147L253.769,97.835z"/>
	<path fill="#FFFFFF" d="M296.053,51.309l-0.547,2.6c2.874-1.505,6.158-2.463,9.579-2.463c14.231,0,20.937,5.063,20.937,19.158
		c0,2.874-0.273,6.021-0.821,9.579c-4.242,29.421-16.01,39.41-29.968,39.41c-4.516,0-8.758-1.505-12.863-4.105l-7.116,33.526
		l-20.663,4.926l21.758-102.63H296.053z M307.684,81.825c1.231-6.021,1.779-10.537,1.779-13.821c0-8.211-3.284-9.853-7.663-9.853
		c-2.6,0-5.2,1.095-7.8,2.874l-9.853,45.979c3.284,2.463,6.705,2.463,8.895,2.463C299.884,109.466,303.168,103.582,307.684,81.825z"
		/>
</g>
<g>
	<path fill="#FFFFFF" d="M382.482,11.197l49.805,108.922h-16.109L400.217,85.24h-44.485l-15.961,34.879h-16.257l49.954-108.922
		H382.482z M362.087,71.348h31.775L377.9,36.469L362.087,71.348z"/>
	<path fill="#FFFFFF" d="M454.603,11.936v19.508h-14.483V11.936H454.603z M454.603,46.372v73.748h-14.483V46.372H454.603z"/>
	<path fill="#FFFFFF" d="M518.75,52.688c1.231,1.035,2.422,2.447,3.704,4.122l-7.851,12.174c-0.924-0.86-4.066-6.745-8.771-9.4
		c-2.852-1.609-7.521-0.271-10.22,1.354c-6.157,3.707-11.684,13.228-12.489,14.696v44.485h-14.483V46.372h14.483v10.937
		c0.03-0.062,2.197-4.28,6.813-7.371c2.872-1.922,6.125-3.566,10.813-3.566C513.375,46.372,518.75,52.688,518.75,52.688z"/>
</g>
<g>
	<path fill="#FFFFFF" d="M531.012,119.527V14.891h11.527v94.291h49.806v10.346H531.012z"/>
	<path fill="#FFFFFF" d="M600.915,30.853V14.891h10.789v15.814L600.915,30.853z M600.915,119.527V49.327h10.789v70.201H600.915z"/>
	<path fill="#FFFFFF" d="M673.774,119.527V79.771c0-3.448-0.369-6.503-1.108-9.163c-0.738-2.66-1.799-4.826-3.177-6.503
		c-2.76-3.644-6.799-5.468-12.119-5.468c-4.928,0-8.918,1.282-11.971,3.843c-1.578,1.282-3.007,2.66-4.286,4.138
		c-1.282,1.478-2.464,3.055-3.547,4.729v48.18h-10.789V49.327h10.641v8.867c2.266-3.152,4.679-5.468,7.242-6.946
		c3.843-2.167,8.077-3.251,12.71-3.251c8.177,0,14.779,2.66,19.804,7.98c2.562,2.66,4.434,5.815,5.616,9.458
		c1.183,3.646,1.773,7.686,1.773,12.119v41.973H673.774z"/>
	<path fill="#FFFFFF" d="M710.426,83.762v2.66c0.296,6.406,2.709,11.875,7.242,16.405c2.461,2.365,5.173,4.189,8.128,5.468
		c2.956,1.282,6.305,1.921,10.05,1.921c5.025,0,9.556-1.131,13.597-3.399c2.166-1.183,4.139-2.413,5.912-3.695
		c1.773-1.279,3.891-3.053,6.354-5.321v13.154c-1.676,1.281-3.376,2.464-5.099,3.547c-1.725,1.085-3.621,2.069-5.689,2.956
		c-4.829,2.266-10.05,3.399-15.666,3.399c-10.444,0-19.065-3.496-25.863-10.493c-6.701-7.191-10.05-16.158-10.05-26.898
		c0-9.951,3.004-18.275,9.015-24.977c6.108-6.995,13.893-10.493,23.352-10.493c9.163,0,16.7,3.251,22.612,9.754
		c2.856,3.155,5.024,6.824,6.502,11.011c1.479,4.189,2.217,9.188,2.217,15H710.426z M750.034,75.19
		c-0.494-2.365-1.183-4.582-2.069-6.65c-0.887-2.069-2.021-3.792-3.399-5.173c-1.478-1.478-3.251-2.635-5.32-3.473
		c-2.069-0.836-4.533-1.256-7.39-1.256c-6.503,0-11.676,2.416-15.518,7.242c-0.887,1.085-1.7,2.464-2.438,4.138
		c-0.739,1.677-1.355,3.351-1.848,5.025h37.982V75.19z"/>
	<path fill="#FFFFFF" d="M808.853,114.946c-4.434,4.039-9.953,6.059-16.553,6.059c-13.133-0.088-20.741-9.136-22.021-9.926V97.833
		c2.561,1.677,14.471,12.75,22.021,12.383c3.843,0,6.995-0.935,9.459-2.808c2.266-1.674,3.399-4.039,3.399-7.094
		c0-2.069-0.839-3.939-2.513-5.616c-1.973-1.87-6.503-4.087-13.597-6.65c-2.859-1.083-5.395-2.24-7.611-3.473
		c-2.217-1.231-4.115-2.635-5.69-4.212c-3.351-3.251-5.024-7.438-5.024-12.563c0-5.713,2.364-10.442,7.094-14.188
		c2.266-1.773,4.679-3.152,7.242-4.138c2.561-0.983,5.32-1.478,8.276-1.478c4.334,0,8.324,0.69,11.971,2.069
		c3.349,1.282,6.107,2.859,8.276,4.729v12.119c-2.563-1.97-4.633-3.422-6.207-4.36c-1.577-0.935-3.104-1.748-4.582-2.438
		c-3.055-1.279-6.011-1.921-8.867-1.921c-2.169,0-4.016,0.247-5.542,0.739c-1.529,0.494-2.834,1.182-3.917,2.069
		c-2.168,2.069-3.251,4.286-3.251,6.651c0,2.563,1.083,4.632,3.251,6.207c1.279,0.887,2.758,1.75,4.434,2.586
		c1.675,0.838,3.645,1.651,5.912,2.438c6.009,2.069,10.886,4.632,14.631,7.685c4.139,3.251,6.208,7.884,6.208,13.893
		C815.651,106.078,813.383,110.907,808.853,114.946z"/>
</g>
</svg>
